<svg id="svg" xmlns="http://www.w3.org/2000/svg" xmlns:xlink="http://www.w3.org/1999/xlink" width="400" height="2939.9014778325122" viewBox="0, 0, 400,2939.9014778325122"><g id="svgg"><path id="path0" d="M105.583 4.433 C 105.090 6.872,104.210 14.312,103.627 20.968 C 99.776 64.976,62.393 104.136,20.690 107.849 C -4.036 110.051,-6.263 126.743,16.459 139.567 C 38.442 151.973,56.310 171.960,96.761 229.396 C 116.104 256.861,137.319 280.128,152.640 290.680 L 163.527 298.178 154.007 304.589 C 133.713 318.256,116.051 338.902,76.656 395.010 C 56.701 423.430,32.818 448.042,17.354 456.119 C -6.474 468.566,-4.255 485.824,21.538 488.655 C 132.631 500.850,130.376 683.830,18.997 694.904 C 4.908 696.305,1.961 698.085,1.997 705.167 C 2.053 715.792,4.343 719.002,17.444 726.808 C 36.653 738.253,58.814 762.504,88.805 804.897 C 116.128 843.517,142.012 872.282,156.169 879.758 C 165.277 884.569,165.277 884.890,156.169 889.700 C 141.978 897.194,116.135 925.929,88.844 964.562 C 59.612 1005.940,31.849 1035.882,15.146 1044.043 C -5.717 1054.237,-3.434 1072.323,18.997 1074.554 C 130.575 1085.647,132.818 1265.658,21.571 1281.065 C -5.368 1284.796,-6.502 1299.881,19.072 1314.314 C 36.176 1323.967,57.393 1347.097,85.992 1387.272 C 120.331 1435.507,140.655 1458.029,158.128 1467.206 C 165.000 1470.815,165.387 1469.999,152.650 1478.771 C 135.577 1490.530,115.533 1513.391,86.837 1553.835 C 57.693 1594.910,35.396 1619.082,17.109 1629.425 C -4.424 1641.605,-4.227 1661.084,17.429 1661.084 C 73.874 1661.084,117.666 1730.373,101.312 1793.804 C 90.879 1834.269,52.864 1867.980,17.667 1867.980 C -3.847 1867.980,-4.594 1887.291,16.459 1899.173 C 38.442 1911.579,56.310 1931.566,96.761 1989.002 C 116.104 2016.467,137.319 2039.734,152.640 2050.286 L 163.527 2057.784 153.524 2064.520 C 134.339 2077.440,114.945 2099.583,85.773 2141.872 C 57.887 2182.296,32.871 2208.563,13.432 2217.833 C 5.699 2221.521,1.970 2227.530,1.970 2236.305 C 1.970 2243.895,4.574 2245.455,21.259 2247.869 C 131.151 2263.765,131.995 2437.902,22.257 2453.927 C -5.050 2457.915,-6.896 2472.258,18.048 2486.643 C 39.392 2498.951,56.211 2517.861,96.084 2574.384 C 121.316 2610.151,143.137 2633.166,159.113 2640.862 C 165.093 2643.742,164.768 2644.605,155.779 2649.738 C 137.218 2660.336,115.916 2684.884,76.681 2740.887 C 57.694 2767.989,35.193 2791.277,18.642 2800.956 C -3.770 2814.063,-5.102 2833.498,16.412 2833.498 C 58.475 2833.498,99.618 2876.470,104.138 2925.123 L 105.419 2938.916 156.880 2939.441 L 208.341 2939.966 209.478 2932.956 C 215.455 2896.125,270.426 2895.506,275.350 2932.215 C 276.794 2942.979,291.077 2943.744,290.105 2933.005 C 285.535 2882.528,212.946 2874.969,196.993 2923.308 L 194.768 2930.049 160.438 2930.049 L 126.108 2930.049 126.108 2923.567 C 126.108 2895.229,101.086 2850.675,75.031 2832.619 L 67.104 2827.125 83.689 2818.801 C 102.838 2809.191,123.630 2792.862,138.340 2775.883 L 148.610 2764.028 164.453 2765.065 C 206.185 2767.795,233.705 2788.017,281.773 2851.275 C 328.344 2912.562,361.136 2939.901,388.074 2939.901 C 406.056 2939.901,404.147 2925.809,385.183 2918.552 C 358.678 2908.409,337.790 2889.094,301.110 2840.808 C 251.853 2775.966,222.638 2752.535,181.281 2744.705 C 174.236 2743.371,168.130 2741.993,167.711 2741.642 C 166.865 2740.935,183.542 2719.953,198.889 2702.415 C 215.373 2683.578,232.380 2670.161,251.772 2660.698 C 280.658 2646.600,280.722 2641.671,252.196 2627.928 C 228.012 2616.277,208.069 2598.284,179.015 2561.902 C 157.467 2534.918,157.025 2533.990,165.725 2533.990 C 204.994 2533.990,243.038 2506.563,296.923 2439.409 C 337.640 2388.664,357.537 2370.306,382.894 2360.086 C 407.264 2350.265,406.464 2343.564,379.329 2330.224 C 354.525 2318.029,330.395 2294.782,298.360 2252.217 C 252.264 2190.969,223.733 2168.340,181.789 2159.759 L 165.548 2156.437 180.544 2137.824 C 211.008 2100.013,237.409 2077.487,260.091 2069.953 C 278.432 2063.861,277.798 2051.600,258.788 2044.764 C 235.045 2036.226,210.216 2014.649,178.669 1975.140 C 157.345 1948.433,157.518 1948.768,165.064 1948.768 C 204.545 1948.768,244.041 1919.838,299.570 1850.246 C 337.575 1802.616,351.079 1790.213,381.088 1775.369 C 406.436 1762.832,406.779 1755.949,382.545 1746.172 C 357.785 1736.183,334.273 1714.016,298.522 1666.957 C 251.780 1605.430,221.254 1581.424,179.939 1573.704 C 164.558 1570.830,164.541 1571.400,180.586 1551.077 C 208.798 1515.340,235.880 1492.169,258.779 1484.175 C 280.627 1476.548,278.499 1467.701,251.649 1454.537 C 226.560 1442.237,209.022 1426.526,180.135 1390.471 L 159.515 1364.735 177.787 1360.620 C 221.926 1350.679,243.773 1333.587,297.624 1266.864 C 339.488 1214.994,358.102 1198.215,385.344 1187.790 C 405.848 1179.943,405.120 1170.331,383.295 1160.739 C 354.901 1148.261,335.528 1130.164,297.947 1081.014 C 251.483 1020.247,222.086 996.887,181.508 988.489 C 173.595 986.851,166.734 985.125,166.263 984.653 C 160.190 978.581,227.115 913.058,251.513 901.189 C 281.063 886.814,281.033 882.629,251.273 868.152 C 228.674 857.158,207.680 838.104,178.997 802.553 L 159.595 778.506 166.989 777.266 C 217.605 768.780,242.530 750.287,299.880 678.666 C 338.186 630.828,361.218 610.371,386.852 601.417 C 404.513 595.248,404.314 582.369,386.466 576.441 C 361.222 568.056,336.602 545.677,298.544 496.522 C 249.358 432.993,221.134 410.724,179.382 402.498 C 165.242 399.712,163.792 399.028,166.122 396.237 C 167.561 394.513,176.317 383.778,185.580 372.380 C 213.001 338.641,235.196 320.142,259.341 310.902 C 278.414 303.603,278.080 292.022,258.599 285.219 C 235.542 277.167,209.025 254.109,178.651 215.700 L 161.561 194.089 169.943 192.495 C 224.784 182.066,245.525 166.646,298.986 96.552 C 333.622 51.141,353.113 32.306,377.829 20.363 C 397.890 10.670,399.920 9.119,399.970 3.448 C 399.996 0.440,397.922 0.000,383.699 0.000 C 354.894 0.000,332.471 17.724,282.592 79.917 C 228.719 147.090,201.815 166.606,157.396 170.735 L 143.830 171.996 125.610 154.399 C 107.468 136.878,91.254 125.502,75.432 119.193 L 67.120 115.878 76.421 108.526 C 104.276 86.508,121.397 56.634,125.633 22.660 L 127.107 10.837 161.002 10.299 L 194.897 9.760 196.927 17.300 C 207.425 56.285,264.669 62.127,284.216 26.208 C 292.776 10.477,292.427 1.133,283.251 0.374 C 276.158 -0.213,275.862 0.009,275.862 5.922 C 275.862 44.125,215.655 45.599,209.570 7.545 L 208.363 -0.000 157.421 -0.000 L 106.479 0.000 105.583 4.433 M153.038 28.900 C 148.840 33.097,152.294 39.229,162.776 46.189 C 186.017 61.620,197.157 76.464,198.941 94.378 C 200.924 114.289,214.101 114.009,213.429 94.071 C 212.544 67.787,165.220 16.717,153.038 28.900 M132.414 45.714 C 128.663 49.465,129.600 53.156,136.220 60.695 C 144.992 70.685,149.660 82.159,149.710 93.847 C 149.778 109.706,161.612 114.377,164.378 99.637 C 168.427 78.050,142.990 35.138,132.414 45.714 M52.944 134.882 C 87.300 144.026,109.085 162.696,159.968 226.601 C 184.492 257.400,207.651 280.825,224.122 291.491 L 234.451 298.180 222.777 305.808 C 205.318 317.215,185.123 338.053,155.184 375.551 C 108.163 434.443,85.903 452.857,50.256 462.351 C 34.190 466.630,29.576 466.089,36.680 460.760 C 54.955 447.049,71.845 427.211,103.510 382.266 C 130.182 344.408,152.610 321.308,173.399 310.285 C 193.284 299.742,193.870 296.066,176.964 287.916 C 150.556 275.187,135.810 259.927,97.334 205.513 C 71.374 168.800,53.239 147.927,35.693 134.567 C 31.121 131.085,39.236 131.234,52.944 134.882 M5.969 215.695 C 1.460 221.127,5.858 225.404,17.710 227.114 C 95.193 238.292,94.022 359.367,16.334 369.458 C -2.663 371.926,0.172 385.584,19.271 383.612 C 85.195 376.808,113.495 287.423,65.852 236.489 C 49.254 218.744,13.688 206.394,5.969 215.695 M175.765 423.867 C 211.551 431.382,237.059 452.169,281.882 510.345 C 306.670 542.518,334.707 571.934,349.492 581.281 C 362.770 589.674,362.717 588.853,350.451 596.059 C 335.000 605.137,310.668 630.117,281.240 667.114 C 236.219 723.716,207.928 746.550,173.881 753.765 C 149.858 758.856,143.012 757.930,134.478 748.433 C 122.469 735.070,98.632 717.171,82.334 709.280 L 67.131 701.919 75.152 696.361 C 100.923 678.501,126.108 633.573,126.108 605.458 L 126.108 599.015 160.438 599.015 L 194.768 599.015 196.993 605.756 C 215.496 661.820,301.876 639.122,289.507 581.447 C 279.707 535.752,217.020 531.254,197.735 574.862 L 193.111 585.317 160.234 584.777 L 127.358 584.236 124.753 568.806 C 119.470 537.504,101.379 506.419,78.750 489.761 L 66.828 480.985 81.197 474.288 C 98.577 466.188,114.600 454.212,132.952 435.606 C 148.292 420.053,152.329 418.946,175.765 423.867 M152.194 488.989 C 150.852 490.331,149.754 495.713,149.754 500.950 C 149.754 512.634,145.932 522.167,136.762 533.358 C 129.415 542.323,128.786 546.930,134.423 550.480 C 141.577 554.985,159.318 530.920,163.616 510.880 C 167.260 493.887,160.415 480.767,152.194 488.989 M201.379 489.064 C 200.079 490.365,199.015 495.277,199.015 499.980 C 199.015 515.544,185.248 533.965,162.159 549.295 C 154.612 554.306,151.724 557.472,151.724 560.737 C 151.724 578.519,194.082 549.312,207.983 521.945 C 218.705 500.838,213.838 476.605,201.379 489.064 M251.232 559.800 C 280.594 567.784,284.661 608.467,257.338 620.876 C 242.239 627.733,228.321 624.702,217.308 612.158 C 196.278 588.206,220.157 551.351,251.232 559.800 M153.038 612.151 C 148.940 616.249,152.276 622.353,162.069 628.674 C 184.778 643.333,199.015 662.474,199.015 678.345 C 199.015 691.026,207.904 696.848,212.928 687.459 C 223.993 666.786,168.359 596.830,153.038 612.151 M132.414 628.966 C 128.868 632.512,129.554 637.364,134.194 641.564 C 142.490 649.072,148.460 662.187,149.620 675.457 C 151.570 697.768,164.811 697.370,164.283 675.017 C 163.751 652.471,141.320 620.059,132.414 628.966 M49.036 720.266 C 83.071 728.289,108.306 749.016,155.727 807.899 C 187.835 847.766,203.798 864.251,221.995 876.334 C 234.860 884.876,234.857 884.524,222.167 892.707 C 206.338 902.916,180.789 929.534,151.337 966.502 C 105.792 1023.671,80.469 1043.207,42.604 1050.388 C 29.842 1052.808,29.793 1052.379,41.774 1043.242 C 55.376 1032.869,71.683 1013.428,99.108 974.889 C 135.505 923.744,151.772 906.965,176.355 895.213 C 193.330 887.098,192.915 882.466,174.384 873.202 C 154.561 863.292,128.746 836.643,101.565 798.030 C 73.739 758.498,59.770 741.405,45.806 729.796 C 39.578 724.619,33.640 719.676,32.611 718.812 C 29.828 716.477,34.848 716.921,49.036 720.266 M7.165 800.998 C 0.416 807.747,5.580 813.792,18.097 813.795 C 27.309 813.797,46.946 823.751,55.532 832.771 C 94.348 873.548,72.777 948.134,20.185 954.992 C 8.985 956.453,3.941 958.781,3.941 962.490 C 3.941 978.224,40.017 970.089,62.178 949.358 C 102.502 911.638,99.103 846.620,55.078 813.541 C 39.573 801.890,13.182 794.982,7.165 800.998 M179.791 1010.709 C 217.001 1020.225,236.033 1036.334,285.701 1100.347 C 312.661 1135.094,335.250 1158.505,350.487 1167.488 C 362.813 1174.755,362.886 1173.869,349.244 1182.659 C 333.824 1192.595,312.683 1213.908,289.042 1243.350 C 253.319 1287.838,242.060 1300.417,227.436 1312.182 C 203.448 1331.479,177.395 1341.872,153.007 1341.872 L 141.325 1341.872 126.266 1327.485 C 108.509 1310.520,97.163 1302.416,79.784 1294.283 L 67.039 1288.319 78.842 1279.630 C 103.842 1261.226,125.948 1219.581,126.079 1190.640 L 126.108 1184.236 160.229 1184.236 L 194.349 1184.236 198.815 1195.013 C 218.751 1243.112,290.660 1228.161,290.175 1176.018 C 289.689 1123.734,212.262 1112.545,197.268 1162.593 L 194.888 1170.536 161.013 1169.997 L 127.139 1169.458 125.825 1160.258 C 120.914 1125.882,100.398 1090.592,75.152 1073.097 L 67.131 1067.539 82.334 1060.178 C 100.254 1051.502,123.656 1033.431,137.025 1017.946 C 148.234 1004.963,153.706 1004.037,179.791 1010.709 M152.176 1074.228 C 150.844 1075.560,149.734 1081.128,149.710 1086.601 C 149.660 1098.210,144.953 1109.654,136.065 1119.778 C 129.364 1127.409,128.870 1132.205,134.423 1135.701 C 142.116 1140.546,161.958 1111.460,164.491 1091.626 C 166.237 1077.954,158.865 1067.539,152.176 1074.228 M201.379 1074.286 C 200.079 1075.586,199.006 1080.685,198.996 1085.616 C 198.962 1102.028,185.708 1119.431,160.991 1135.519 C 150.286 1142.486,148.339 1151.104,157.185 1152.359 C 167.317 1153.797,200.177 1124.452,208.671 1106.380 C 218.592 1085.274,213.371 1062.294,201.379 1074.286 M260.253 1149.308 C 287.398 1167.601,277.637 1206.762,245.263 1209.446 C 207.599 1212.570,195.241 1159.514,230.542 1146.249 C 238.309 1143.331,253.741 1144.919,260.253 1149.308 M154.187 1197.364 C 148.120 1199.812,151.810 1207.286,162.833 1214.877 C 186.590 1231.239,196.861 1244.926,198.831 1262.847 C 201.024 1282.789,214.102 1282.450,213.423 1262.468 C 212.744 1242.502,197.268 1220.695,171.455 1203.331 C 160.698 1196.095,158.884 1195.469,154.187 1197.364 M132.414 1214.187 C 128.632 1217.969,129.597 1221.444,136.904 1230.362 C 145.966 1241.421,149.754 1250.968,149.754 1262.750 C 149.754 1277.425,160.383 1282.842,163.883 1269.951 C 169.507 1249.238,143.481 1203.120,132.414 1214.187 M50.775 1307.244 C 87.405 1316.995,109.373 1335.752,162.001 1402.214 C 185.148 1431.445,204.898 1451.442,221.858 1462.819 L 234.688 1471.426 225.378 1476.883 C 210.201 1485.777,184.466 1512.073,155.991 1547.783 C 112.065 1602.871,90.304 1621.774,58.535 1632.438 C 31.546 1641.498,31.129 1640.121,53.934 1617.241 C 68.268 1602.861,81.671 1586.263,100.477 1559.606 C 132.893 1513.656,151.768 1493.997,174.037 1482.994 C 194.051 1473.105,193.970 1470.072,173.399 1459.192 C 151.788 1447.761,130.609 1425.470,98.961 1380.843 C 71.618 1342.286,56.714 1324.669,40.710 1311.989 C 29.799 1303.345,32.083 1302.268,50.775 1307.244 M5.774 1388.343 C 1.448 1393.556,6.112 1397.693,19.331 1400.369 C 95.326 1415.750,93.783 1531.368,17.437 1542.383 C -2.851 1545.310,-0.166 1557.927,20.348 1556.067 C 82.630 1550.420,112.168 1465.185,69.773 1413.447 C 53.114 1393.117,14.411 1377.935,5.774 1388.343 M176.182 1595.072 C 214.781 1603.249,236.953 1621.937,289.655 1690.714 C 311.785 1719.593,333.570 1742.227,349.261 1752.643 C 362.775 1761.614,362.479 1760.096,351.924 1766.281 C 336.571 1775.279,311.461 1801.036,279.677 1840.394 C 225.562 1907.401,203.177 1923.055,154.416 1927.986 L 142.330 1929.208 128.816 1916.087 C 111.809 1899.575,94.802 1887.390,78.767 1880.230 L 66.280 1874.655 73.177 1870.392 C 98.389 1854.810,121.445 1816.278,125.568 1782.836 L 127.095 1770.443 160.992 1769.905 L 194.888 1769.366 197.268 1777.309 C 212.490 1828.117,290.148 1815.936,290.148 1762.739 C 290.148 1711.323,218.529 1697.325,198.815 1744.888 L 194.349 1755.665 160.229 1755.665 L 126.108 1755.665 126.079 1750.246 C 125.924 1721.439,104.654 1683.285,76.194 1660.762 L 66.673 1653.227 72.253 1651.147 C 92.909 1643.447,109.390 1631.815,131.976 1608.996 C 150.837 1589.941,151.288 1589.798,176.182 1595.072 M153.151 1659.378 C 150.624 1660.792,149.743 1663.906,149.710 1671.526 C 149.660 1683.581,144.206 1696.860,135.682 1705.685 C 128.601 1713.016,128.483 1720.820,135.439 1721.808 C 147.628 1723.540,168.352 1684.389,164.509 1666.889 C 162.987 1659.962,158.000 1656.665,153.151 1659.378 M201.055 1660.954 C 199.933 1663.050,199.015 1667.963,199.015 1671.870 C 199.015 1686.160,188.040 1701.377,165.954 1717.710 C 143.567 1734.266,149.639 1746.808,172.439 1731.105 C 201.710 1710.945,221.381 1677.102,212.966 1661.379 C 210.146 1656.110,203.769 1655.882,201.055 1660.954 M263.071 1736.825 C 276.204 1746.842,280.054 1766.595,271.382 1779.465 C 247.937 1814.254,194.786 1785.997,212.979 1748.415 C 221.893 1730.001,246.623 1724.279,263.071 1736.825 M154.089 1783.645 C 149.354 1788.380,151.788 1793.000,163.054 1800.660 C 185.857 1816.164,199.015 1834.232,199.015 1850.042 C 199.015 1861.811,205.472 1867.153,211.912 1860.713 C 224.220 1848.405,201.980 1809.197,171.044 1788.663 C 158.829 1780.555,157.556 1780.178,154.089 1783.645 M130.659 1802.238 C 129.979 1804.011,130.228 1806.616,131.214 1808.026 C 132.199 1809.437,136.457 1815.494,140.677 1821.487 C 146.680 1830.012,148.526 1834.649,149.161 1842.793 C 150.563 1860.786,151.236 1862.391,157.081 1861.701 C 171.236 1860.028,165.165 1827.114,146.641 1805.099 C 141.010 1798.406,132.700 1796.919,130.659 1802.238 M58.128 1895.945 C 88.728 1905.855,110.320 1924.405,152.667 1977.162 C 184.992 2017.435,205.071 2038.253,223.056 2050.145 L 234.289 2057.572 222.165 2065.668 C 204.839 2077.238,183.712 2099.017,156.842 2133.005 C 107.295 2195.680,78.465 2217.992,39.409 2223.890 L 30.542 2225.229 40.452 2217.346 C 56.197 2204.821,70.918 2187.322,98.792 2147.999 C 130.201 2103.688,153.331 2079.501,174.384 2068.949 C 193.260 2059.490,193.730 2055.590,176.964 2047.563 C 151.484 2035.364,133.618 2016.729,96.121 1963.240 C 79.113 1938.979,52.190 1905.511,49.541 1905.335 C 48.845 1905.288,44.305 1901.765,39.451 1897.504 L 30.626 1889.757 38.466 1890.936 C 42.778 1891.585,51.626 1893.839,58.128 1895.945 M5.946 1975.328 C 1.422 1980.779,5.880 1985.016,17.948 1986.734 C 95.859 1997.825,93.668 2118.813,15.370 2129.050 C 8.480 2129.951,5.790 2131.267,4.862 2134.191 C -0.842 2152.164,43.138 2142.271,64.672 2120.737 C 106.007 2079.402,95.075 2005.128,43.951 1979.960 C 28.270 1972.240,10.324 1970.052,5.946 1975.328 M180.296 2181.577 C 214.801 2189.060,240.005 2210.602,287.146 2272.906 C 314.991 2309.708,336.345 2331.204,357.667 2343.897 C 360.599 2345.643,359.563 2346.923,350.167 2353.161 C 332.052 2365.189,314.409 2383.217,285.167 2419.579 C 231.381 2486.460,210.819 2502.928,170.759 2511.202 C 144.787 2516.567,143.382 2516.221,126.680 2500.356 C 110.993 2485.455,91.673 2472.186,76.123 2465.633 L 66.533 2461.591 75.442 2455.462 C 101.647 2437.432,126.108 2393.314,126.108 2364.079 L 126.108 2356.650 160.323 2356.650 L 194.538 2356.650 197.904 2365.462 C 214.340 2408.500,279.838 2403.536,289.492 2358.521 C 301.799 2301.137,215.401 2278.370,196.993 2334.146 L 194.768 2340.887 160.839 2340.887 L 126.911 2340.887 124.574 2327.261 C 118.827 2293.746,93.528 2254.009,71.429 2243.783 C 65.116 2240.863,65.802 2239.777,76.355 2235.988 C 92.148 2230.316,110.459 2216.955,130.049 2196.807 L 148.768 2177.554 159.606 2178.498 C 165.567 2179.016,174.877 2180.402,180.296 2181.577 M202.111 2245.461 C 200.339 2247.233,199.015 2251.894,199.015 2256.362 C 199.015 2272.209,187.561 2288.074,163.962 2304.913 C 151.099 2314.093,148.836 2319.338,155.845 2323.730 C 163.079 2328.261,198.704 2297.752,207.737 2279.291 C 218.531 2257.228,214.512 2233.060,202.111 2245.461 M150.991 2247.345 C 150.310 2249.118,149.754 2254.378,149.754 2259.034 C 149.754 2269.551,146.264 2278.069,136.983 2290.204 C 128.843 2300.848,128.600 2306.117,136.206 2307.002 C 149.229 2308.518,168.742 2269.214,163.895 2251.232 C 162.046 2244.372,153.159 2241.696,150.991 2247.345 M257.338 2319.025 C 268.233 2323.973,274.396 2333.085,275.450 2345.803 C 278.085 2377.571,240.597 2393.649,218.355 2370.291 C 193.246 2343.922,223.770 2303.781,257.338 2319.025 M153.038 2369.787 C 149.161 2373.664,152.782 2379.051,165.469 2388.278 C 187.755 2404.488,199.015 2419.974,199.015 2434.417 C 199.015 2447.972,207.810 2454.659,212.966 2445.025 C 224.235 2423.969,168.646 2354.178,153.038 2369.787 M131.363 2385.550 C 128.444 2388.469,130.348 2395.647,135.236 2400.149 C 143.240 2407.520,149.712 2423.037,149.734 2434.906 C 149.749 2442.898,150.569 2445.618,153.422 2447.145 C 163.769 2452.683,167.925 2433.764,160.722 2413.914 C 153.865 2395.018,137.604 2379.309,131.363 2385.550 M49.036 2479.872 C 82.769 2487.823,109.690 2509.670,153.354 2564.529 C 184.377 2603.505,204.942 2624.869,222.105 2635.949 L 234.358 2643.860 223.636 2650.979 C 205.663 2662.912,185.918 2683.123,157.937 2718.227 C 106.962 2782.177,85.139 2799.941,46.566 2808.880 C 29.370 2812.865,29.348 2812.782,44.339 2800.446 C 58.399 2788.876,75.585 2768.174,97.868 2735.968 C 131.451 2687.427,150.404 2667.750,175.988 2654.863 C 193.721 2645.930,193.468 2642.356,174.424 2632.730 C 149.881 2620.323,132.437 2601.313,88.497 2539.088 C 72.370 2516.250,48.419 2489.583,36.453 2481.142 C 29.365 2476.142,32.060 2475.870,49.036 2479.872 M7.389 2559.680 C -0.076 2564.209,6.054 2573.399,16.539 2573.399 C 42.946 2573.399,69.535 2600.292,74.673 2632.197 C 81.071 2671.923,54.554 2711.005,18.689 2714.707 C -2.823 2716.927,-2.007 2730.160,19.546 2728.618 C 90.160 2723.566,115.884 2617.504,56.982 2574.266 C 40.846 2562.421,15.271 2554.899,7.389 2559.680 M202.111 2834.624 C 200.339 2836.396,199.015 2841.057,199.015 2845.524 C 199.015 2861.348,187.560 2877.237,164.067 2894.001 C 151.176 2903.200,148.650 2908.561,155.483 2912.218 C 163.668 2916.598,200.874 2884.539,209.046 2866.064 C 218.472 2844.754,213.685 2823.050,202.111 2834.624 M151.067 2834.811 C 150.345 2835.534,149.734 2840.632,149.710 2846.141 C 149.660 2857.717,144.517 2870.359,135.833 2880.249 C 128.457 2888.650,128.652 2895.291,136.302 2896.175 C 150.232 2897.786,171.463 2849.691,162.883 2835.961 C 161.257 2833.359,153.294 2832.585,151.067 2834.811 " stroke="none" fill="#000000" fill-rule="evenodd"></path></g></svg>